{"glyphs":{":":{"x_min":0,"x_max":240,"ha":240,"o":"m 64 478 q 64 543 120 543 q 146 543 161 527 q 176 511 176 478 q 176 444 160 428 q 144 412 120 412 q 94 412 79 428 q 64 444 64 478 z m 64 55 q 64 120 120 120 q 145 120 160 105 q 176 90 176 55 q 176 21 160 6 q 144 -10 120 -10 q 94 -10 79 6 q 64 22 64 55 z"},"$":{"x_min":0,"x_max":472,"ha":472,"o":"m 209 -58 l 209 51 q 161 52 118 61 q 76 70 47 84 l 47 164 q 77 148 120 136 q 164 124 209 122 l 209 333 q 123 364 85 403 q 47 442 47 510 q 47 580 92 624 q 136 667 209 674 l 209 760 l 262 760 l 262 676 q 346 672 412 640 l 388 572 q 333 598 262 604 l 262 393 q 345 362 386 326 q 428 289 428 221 q 428 155 385 110 q 342 66 262 55 l 262 -58 z m 209 414 l 209 602 q 166 597 144 573 q 123 549 123 514 q 123 474 142 453 q 160 432 209 414 z m 262 126 q 308 134 330 158 q 352 182 352 216 q 352 252 332 274 q 312 295 262 313 z"},"?":{"x_min":0,"x_max":353,"ha":353,"o":"m 111 201 l 111 229 q 111 282 124 318 q 137 355 173 395 q 215 442 232 475 q 248 508 248 551 q 248 599 225 624 q 202 649 160 649 q 126 649 98 638 q 71 628 43 611 l 12 677 q 46 700 84 712 q 121 724 164 724 q 244 724 287 680 q 330 636 330 557 q 330 514 320 482 q 309 450 288 422 q 268 393 238 358 q 214 331 200 310 q 187 289 182 268 q 177 248 177 220 l 177 201 z m 90 55 q 90 88 105 104 q 120 120 146 120 q 171 120 186 105 q 202 90 202 55 q 202 21 186 6 q 170 -10 146 -10 q 120 -10 105 6 q 90 22 90 55 z"},"<":{"x_min":0,"x_max":473,"ha":473,"o":"m 436 127 l 35 329 l 35 378 l 436 587 l 436 509 l 128 354 l 436 205 z"},"'":{"x_min":0,"x_max":213,"ha":213,"o":"m 154 714 l 137 456 l 78 456 l 60 714 z"},"=":{"x_min":0,"x_max":473,"ha":473,"o":"m 38 422 l 38 491 l 433 491 l 433 422 z m 38 213 l 38 282 l 433 282 l 433 213 z"},"a":{"x_min":0,"x_max":460,"ha":460,"o":"m 236 546 q 318 546 354 500 q 391 453 391 363 l 391 0 l 328 0 l 315 75 l 312 75 q 287 32 254 11 q 222 -10 172 -10 q 107 -10 72 36 q 38 81 38 150 q 38 230 89 274 q 140 317 239 321 l 309 324 l 309 358 q 309 422 288 450 q 268 478 225 478 q 196 478 168 468 q 139 459 109 443 l 83 505 q 115 524 154 535 q 193 546 236 546 z m 309 265 l 252 262 q 183 259 153 231 q 123 203 123 151 q 123 103 144 80 q 164 58 198 58 q 248 58 278 98 q 309 138 309 213 z"},"L":{"x_min":0,"x_max":417,"ha":417,"o":"m 80 0 l 80 714 l 166 714 l 166 77 l 398 77 l 398 0 z"},"3":{"x_min":0,"x_max":472,"ha":472,"o":"m 406 549 q 406 484 373 439 q 340 394 279 375 l 279 371 q 349 358 385 313 q 421 268 421 198 q 421 105 365 48 q 309 -10 202 -10 q 154 -10 115 -2 q 76 5 40 22 l 40 105 q 115 63 196 63 q 267 63 300 101 q 333 139 333 202 q 333 332 171 332 l 125 332 l 125 405 l 174 405 q 244 405 282 442 q 321 480 321 541 q 321 594 294 622 q 266 651 216 651 q 174 651 143 636 q 112 622 80 597 l 39 656 q 78 690 123 707 q 168 724 223 724 q 311 724 358 676 q 406 628 406 549 z"},";":{"x_min":0,"x_max":240,"ha":240,"o":"m 63 478 q 63 511 78 527 q 93 543 119 543 q 145 543 160 527 q 176 511 176 478 q 176 444 160 428 q 143 412 119 412 q 93 412 78 428 q 63 444 63 478 z m 170 115 l 177 104 q 148 -19 98 -131 l 34 -131 q 50 -71 62 -5 q 75 61 82 115 z"},"J":{"x_min":0,"x_max":239,"ha":239,"o":"m 10 -192 q -30 -192 -58 -180 l -58 -105 q -44 -110 -29 -112 q -14 -115 3 -115 q 38 -115 58 -88 q 77 -62 77 5 l 77 714 l 162 714 l 162 3 q 162 -102 122 -147 q 82 -192 10 -192 z"},"V":{"x_min":0,"x_max":489,"ha":489,"o":"m 489 714 l 291 0 l 196 0 l 0 714 l 90 714 l 214 238 q 223 203 230 166 q 238 130 243 96 q 248 130 256 166 q 264 203 274 240 l 399 714 z"},"\"":{"x_min":0,"x_max":388,"ha":388,"o":"m 154 714 l 137 456 l 78 456 l 60 714 z m 328 714 l 311 456 l 252 456 l 234 714 z"},"7":{"x_min":0,"x_max":472,"ha":472,"o":"m 106 0 l 345 636 l 35 636 l 35 714 l 432 714 l 432 650 l 196 0 z"},"S":{"x_min":0,"x_max":454,"ha":454,"o":"m 413 194 q 413 133 388 87 q 362 41 315 16 q 268 -10 205 -10 q 108 -10 42 22 l 42 109 q 76 90 120 80 q 164 69 204 69 q 263 69 295 102 q 327 136 327 186 q 327 221 315 245 q 303 269 275 289 q 247 309 199 331 q 151 354 117 380 q 83 407 66 444 q 48 482 48 538 q 48 594 72 636 q 97 678 142 701 q 186 724 244 724 q 290 724 331 714 q 372 703 404 688 l 376 610 q 344 626 310 636 q 277 645 245 645 q 192 645 164 616 q 135 586 135 540 q 135 504 146 480 q 158 457 185 438 q 212 418 259 396 q 336 360 374 314 q 413 268 413 194 z"},"}":{"x_min":0,"x_max":367,"ha":367,"o":"m 38 -160 l 38 -92 q 90 -91 116 -68 q 141 -46 141 3 l 141 152 q 141 205 164 236 q 187 266 239 276 l 239 280 q 187 290 164 320 q 141 350 141 404 l 141 553 q 141 604 114 626 q 88 647 38 648 l 38 716 q 129 714 176 676 q 222 637 222 557 l 222 408 q 222 358 246 334 q 270 311 330 311 l 330 246 q 273 245 248 223 q 222 201 222 149 l 222 -1 q 222 -159 38 -160 z"},"Z":{"x_min":0,"x_max":424,"ha":424,"o":"m 399 0 l 30 0 l 30 66 l 295 637 l 36 637 l 36 714 l 391 714 l 391 647 l 125 77 l 399 77 z"},"x":{"x_min":0,"x_max":420,"ha":420,"o":"m 162 276 l 24 537 l 114 537 l 211 340 l 309 537 l 399 537 l 259 273 l 405 0 l 315 0 l 210 209 l 104 0 l 15 0 z"},")":{"x_min":0,"x_max":294,"ha":294,"o":"m 247 276 q 247 153 211 40 q 175 -72 104 -158 l 30 -158 q 95 -64 129 48 q 163 161 163 277 q 163 397 129 510 q 95 622 29 718 l 104 718 q 175 630 211 514 q 247 399 247 276 z"},"&":{"x_min":0,"x_max":554,"ha":554,"o":"m 235 724 q 300 724 336 684 q 372 645 372 573 q 372 512 345 466 q 318 420 268 379 l 396 204 q 412 232 422 268 q 432 303 437 345 l 522 345 q 514 291 496 235 q 477 179 448 136 l 554 0 l 450 0 l 394 76 q 356 36 313 13 q 270 -10 209 -10 q 124 -10 80 43 q 36 96 36 182 q 36 250 67 298 q 98 346 160 390 q 128 436 110 478 q 93 520 93 575 q 93 645 132 684 q 170 724 235 724 z m 233 656 q 206 656 190 635 q 174 614 174 574 q 174 540 187 502 q 200 465 224 434 q 262 463 278 498 q 293 532 293 574 q 293 656 233 656 z m 203 335 q 161 303 142 270 q 122 236 122 186 q 122 130 148 98 q 174 66 218 66 q 258 66 290 85 q 322 104 347 138 z"},"_":{"x_min":0,"x_max":439,"ha":439,"o":"m 441 -148 l -2 -148 l -2 -85 l 441 -85 z"},"v":{"x_min":0,"x_max":411,"ha":411,"o":"m 158 0 l 3 537 l 89 537 l 174 219 q 182 188 190 154 q 198 119 203 88 l 207 88 q 209 108 217 140 q 225 171 234 204 l 322 537 l 409 537 l 252 0 z"},"O":{"x_min":0,"x_max":619,"ha":619,"o":"m 567 358 q 567 253 540 170 q 513 86 456 38 q 399 -10 310 -10 q 219 -10 162 39 q 106 88 80 172 q 53 255 53 359 q 53 537 118 630 q 182 724 311 724 q 400 724 456 676 q 513 628 540 546 q 567 463 567 358 z m 143 358 q 143 217 184 142 q 226 67 310 67 q 393 67 434 142 q 476 216 476 358 q 476 500 435 574 q 394 647 311 647 q 226 647 184 573 q 143 499 143 358 z"},"(":{"x_min":0,"x_max":294,"ha":294,"o":"m 46 276 q 46 401 83 516 q 120 630 190 718 l 264 718 q 198 621 164 508 q 130 396 130 277 q 130 160 164 48 q 198 -65 263 -158 l 190 -158 q 118 -72 82 40 q 46 152 46 276 z"},"C":{"x_min":0,"x_max":502,"ha":502,"o":"m 325 648 q 264 648 224 609 q 183 570 163 504 q 143 438 143 357 q 143 222 192 144 q 240 67 328 67 q 363 67 394 74 q 426 82 455 94 l 455 18 q 426 4 393 -3 q 360 -10 318 -10 q 234 -10 175 34 q 116 79 84 162 q 53 244 53 358 q 53 462 83 545 q 113 628 174 676 q 234 725 324 725 q 408 725 476 687 l 444 614 q 418 629 388 638 q 359 648 325 648 z"},"W":{"x_min":0,"x_max":782,"ha":782,"o":"m 776 714 l 617 0 l 520 0 l 414 459 q 408 484 402 522 q 395 559 390 599 q 387 573 381 534 q 375 496 366 459 l 263 0 l 167 0 l 6 714 l 94 714 l 188 277 q 198 225 206 180 q 213 134 217 100 q 223 142 232 188 q 240 235 249 277 l 349 714 l 432 714 l 533 276 q 542 236 550 191 q 558 146 564 100 q 569 145 577 190 q 585 236 594 277 l 689 714 z"},"A":{"x_min":0,"x_max":507,"ha":507,"o":"m 416 0 l 354 222 l 152 222 l 90 0 l 0 0 l 205 715 l 300 715 l 506 0 z m 335 301 l 274 530 q 269 552 262 582 q 255 612 252 634 q 242 580 230 530 l 170 301 z"},"f":{"x_min":0,"x_max":280,"ha":280,"o":"m 268 469 l 168 469 l 168 0 l 84 0 l 84 469 l 11 469 l 11 511 l 84 540 l 84 571 q 84 667 116 716 q 148 765 222 765 q 247 765 268 760 q 289 756 309 748 l 288 682 q 273 686 258 690 q 244 694 229 694 q 195 694 182 667 q 168 640 168 573 l 168 537 l 268 537 z"},"Q":{"x_min":0,"x_max":619,"ha":619,"o":"m 567 358 q 567 223 527 134 q 487 45 412 11 l 540 -170 l 432 -170 l 328 -8 q 318 -10 307 -10 q 217 -10 161 40 q 105 89 79 172 q 53 256 53 359 q 53 537 118 630 q 182 724 311 724 q 435 724 501 630 q 567 535 567 358 z m 143 358 q 143 217 184 142 q 226 67 310 67 q 393 67 434 142 q 476 216 476 358 q 476 500 435 574 q 394 647 311 647 q 226 647 184 573 q 143 499 143 358 z"},"w":{"x_min":0,"x_max":659,"ha":659,"o":"m 426 0 l 355 318 q 348 351 342 384 q 335 418 331 444 l 328 444 q 324 416 318 383 q 312 350 304 318 l 229 0 l 134 0 l 10 537 l 94 537 l 154 264 q 162 222 170 178 q 179 134 184 96 l 187 96 q 192 128 199 170 q 206 213 217 256 l 284 537 l 376 537 l 442 255 q 450 226 458 184 q 466 142 472 96 l 475 96 q 477 117 484 151 q 490 185 498 224 l 567 537 l 650 537 l 522 0 z"},"-":{"x_min":0,"x_max":288,"ha":288,"o":"m 31 229 l 31 309 l 258 309 l 258 229 z"},"E":{"x_min":0,"x_max":448,"ha":448,"o":"m 399 0 l 80 0 l 80 714 l 399 714 l 399 638 l 166 638 l 166 411 l 385 411 l 385 335 l 166 335 l 166 77 l 399 77 z"},"s":{"x_min":0,"x_max":381,"ha":381,"o":"m 345 145 q 345 70 300 30 q 254 -10 174 -10 q 131 -10 98 -1 q 64 8 39 21 l 39 104 q 64 87 100 74 q 136 62 173 62 q 218 62 241 83 q 264 104 264 141 q 264 172 243 194 q 222 216 167 243 q 108 273 73 308 q 38 342 38 405 q 38 470 84 508 q 130 547 204 547 q 242 547 276 538 q 310 528 341 511 l 311 445 q 286 459 259 468 q 232 477 203 477 q 163 477 140 458 q 118 440 118 408 q 118 376 140 356 q 163 336 219 307 q 277 276 311 242 q 345 207 345 145 z"},">":{"x_min":0,"x_max":473,"ha":473,"o":"m 36 205 l 344 354 l 36 509 l 36 587 l 437 378 l 437 329 l 36 127 z"},"l":{"x_min":0,"x_max":224,"ha":224,"o":"m 154 0 l 71 0 l 71 760 l 154 760 z"},"8":{"x_min":0,"x_max":472,"ha":472,"o":"m 237 724 q 319 724 368 679 q 416 634 416 556 q 416 495 384 450 q 353 406 297 374 q 356 338 395 294 q 434 250 434 182 q 434 96 381 43 q 328 -10 240 -10 q 143 -10 90 41 q 38 92 38 178 q 38 244 72 291 q 105 338 165 372 q 113 409 85 454 q 57 498 57 555 q 57 634 107 679 q 157 724 237 724 z m 235 654 q 192 654 166 626 q 140 599 140 551 q 140 502 166 471 q 191 440 236 413 q 283 440 308 472 q 332 504 332 551 q 332 599 306 626 q 280 654 235 654 z m 122 178 q 122 127 151 94 q 180 60 236 60 q 292 60 321 94 q 350 128 350 182 q 350 224 324 258 q 297 293 245 323 l 226 335 q 171 304 146 267 q 122 230 122 178 z"},"\\":{"x_min":0,"x_max":371,"ha":371,"o":"m 95 716 l 359 -2 l 279 -2 l 16 716 z"},"e":{"x_min":0,"x_max":462,"ha":462,"o":"m 238 546 q 297 546 337 515 q 377 484 398 430 q 418 376 418 308 l 418 252 l 130 252 q 133 61 264 61 q 333 61 397 98 l 397 24 q 365 7 332 -2 q 298 -10 257 -10 q 186 -10 140 25 q 93 60 70 122 q 47 184 47 265 q 47 400 96 473 q 146 546 238 546 z m 238 478 q 140 478 131 318 l 338 318 q 337 385 313 432 q 289 478 238 478 z"},"b":{"x_min":0,"x_max":508,"ha":508,"o":"m 154 760 l 154 553 q 154 531 153 508 q 152 486 150 466 l 155 466 q 177 504 210 525 q 242 546 286 546 q 370 546 416 476 q 463 406 463 269 q 463 133 417 62 q 371 -10 289 -10 q 243 -10 210 10 q 178 30 155 68 l 149 68 l 136 0 l 71 0 l 71 760 z m 269 474 q 224 474 199 449 q 174 424 164 379 q 154 334 154 274 l 154 260 q 154 160 182 110 q 209 61 271 61 q 377 61 377 270 q 377 371 351 422 q 325 474 269 474 z"},"%":{"x_min":0,"x_max":714,"ha":714,"o":"m 168 724 q 229 724 262 666 q 295 608 295 501 q 295 394 262 335 q 230 276 168 276 q 107 276 75 335 q 43 394 43 501 q 43 608 74 666 q 105 724 168 724 z m 538 714 l 244 0 l 175 0 l 469 714 z m 167 663 q 137 663 124 622 q 112 582 112 501 q 112 419 124 378 q 137 338 168 338 q 225 338 225 501 q 225 663 167 663 z m 545 439 q 606 439 639 380 q 672 322 672 216 q 672 108 640 50 q 607 -9 545 -9 q 484 -9 452 50 q 420 110 420 216 q 420 325 452 382 q 483 439 545 439 z m 544 378 q 515 378 502 338 q 489 297 489 216 q 489 134 502 93 q 515 52 545 52 q 602 52 602 216 q 602 378 544 378 z"},"m":{"x_min":0,"x_max":758,"ha":758,"o":"m 547 547 q 620 547 655 500 q 690 454 690 357 l 690 0 l 607 0 l 607 345 q 607 412 586 443 q 566 474 526 474 q 469 474 445 428 q 421 383 421 296 l 421 0 l 339 0 l 339 347 q 339 414 320 444 q 300 474 259 474 q 197 474 176 421 q 154 368 154 280 l 154 0 l 71 0 l 71 537 l 138 537 l 148 464 l 153 464 q 172 505 205 526 q 238 547 281 547 q 331 547 362 524 q 394 500 406 460 l 412 460 q 453 547 547 547 z"},"#":{"x_min":0,"x_max":516,"ha":516,"o":"m 391 445 l 368 280 l 470 280 l 470 215 l 358 215 l 327 0 l 262 0 l 293 215 l 181 215 l 151 0 l 87 0 l 117 215 l 21 215 l 21 280 l 126 280 l 150 445 l 48 445 l 48 510 l 159 510 l 188 714 l 254 714 l 224 510 l 336 510 l 366 714 l 429 714 l 400 510 l 496 510 l 496 445 z m 191 280 l 302 280 l 326 445 l 214 445 z"},",":{"x_min":0,"x_max":239,"ha":239,"o":"m 172 115 l 179 104 q 150 -19 100 -131 l 38 -131 q 53 -72 66 -6 q 78 61 84 115 z"},"n":{"x_min":0,"x_max":505,"ha":505,"o":"m 286 547 q 360 547 398 502 q 436 456 436 360 l 436 0 l 353 0 l 353 346 q 353 410 334 442 q 314 474 270 474 q 206 474 180 427 q 154 380 154 279 l 154 0 l 71 0 l 71 537 l 138 537 l 148 464 l 153 464 q 173 504 208 526 q 244 547 286 547 z"},"h":{"x_min":0,"x_max":505,"ha":505,"o":"m 154 760 l 154 543 q 154 498 148 464 l 154 464 q 173 504 208 525 q 243 546 285 546 q 362 546 399 500 q 436 453 436 360 l 436 0 l 353 0 l 353 346 q 353 413 334 443 q 314 473 270 473 q 207 473 180 425 q 154 377 154 278 l 154 0 l 71 0 l 71 760 z"},"z":{"x_min":0,"x_max":353,"ha":353,"o":"m 327 0 l 29 0 l 29 56 l 228 468 l 41 468 l 41 537 l 320 537 l 320 476 l 122 69 l 327 69 z"},"B":{"x_min":0,"x_max":529,"ha":529,"o":"m 80 714 l 252 714 q 358 714 413 672 q 468 630 468 540 q 468 473 440 432 q 411 390 356 378 l 356 374 q 418 360 452 320 q 485 280 485 204 q 485 110 432 55 q 379 0 284 0 l 80 0 z m 166 409 l 257 409 q 324 409 352 440 q 380 470 380 532 q 380 640 252 640 l 166 640 z m 166 336 l 166 74 l 272 74 q 336 74 366 109 q 396 144 396 209 q 396 270 363 303 q 330 336 263 336 z"},"K":{"x_min":0,"x_max":499,"ha":499,"o":"m 501 0 l 404 0 l 224 333 l 166 272 l 166 0 l 80 0 l 80 714 l 166 714 l 166 358 q 180 378 198 406 q 217 434 241 471 l 397 714 l 492 714 l 283 400 z"},"R":{"x_min":0,"x_max":509,"ha":509,"o":"m 228 714 q 345 714 400 664 q 455 613 455 512 q 455 437 424 390 q 393 344 336 320 l 496 0 l 399 0 l 258 298 l 166 298 l 166 0 l 80 0 l 80 714 z m 227 637 l 166 637 l 166 370 l 234 370 q 367 370 367 508 q 367 577 333 607 q 299 637 227 637 z"},"T":{"x_min":0,"x_max":434,"ha":434,"o":"m 259 0 l 174 0 l 174 637 l 10 637 l 10 714 l 422 714 l 422 637 l 259 637 z"},"P":{"x_min":0,"x_max":492,"ha":492,"o":"m 229 714 q 345 714 400 661 q 455 608 455 503 q 455 400 400 339 q 344 278 223 278 l 166 278 l 166 0 l 80 0 l 80 714 z m 225 639 l 166 639 l 166 353 l 214 353 q 294 353 330 388 q 366 422 366 501 q 366 574 332 606 q 298 639 225 639 z"},"|":{"x_min":0,"x_max":449,"ha":449,"o":"m 187 762 l 262 762 l 262 -238 l 187 -238 z"},"t":{"x_min":0,"x_max":290,"ha":290,"o":"m 217 62 q 246 62 273 72 l 273 6 q 241 -10 194 -10 q 138 -10 106 25 q 74 60 74 140 l 74 469 l 17 469 l 17 512 l 78 538 l 104 658 l 158 658 l 158 537 l 267 537 l 267 469 l 158 469 l 158 148 q 158 104 172 83 q 186 62 217 62 z"},"M":{"x_min":0,"x_max":775,"ha":775,"o":"m 348 0 l 159 607 l 155 607 q 158 563 160 522 q 161 482 161 450 l 161 0 l 80 0 l 80 714 l 203 714 l 386 130 l 389 130 l 572 714 l 696 714 l 696 0 l 612 0 l 612 451 q 612 482 614 522 q 615 563 617 607 l 613 607 l 423 0 z"},"g":{"x_min":0,"x_max":508,"ha":508,"o":"m 222 547 q 264 547 297 528 q 330 508 354 466 l 359 466 l 369 537 l 438 537 l 438 -7 q 438 -120 386 -180 q 335 -240 224 -240 q 138 -240 77 -208 l 77 -130 q 148 -168 224 -168 q 288 -168 322 -133 q 355 -98 355 -22 l 355 -5 q 355 10 356 32 q 356 54 358 74 l 354 74 q 308 -10 220 -10 q 138 -10 92 61 q 46 132 46 266 q 46 402 93 474 q 140 547 222 547 z m 237 474 q 184 474 158 420 q 131 367 131 265 q 131 161 158 111 q 185 61 240 61 q 355 61 355 245 l 355 269 q 355 376 326 425 q 298 474 237 474 z"},"j":{"x_min":0,"x_max":225,"ha":225,"o":"m 65 681 q 65 710 78 724 q 92 738 114 738 q 161 738 161 681 q 161 653 148 638 q 136 624 114 624 q 92 624 78 638 q 65 653 65 681 z m 32 -240 q 14 -240 0 -237 q -14 -234 -26 -230 l -26 -158 q -4 -167 19 -167 q 44 -167 58 -148 q 71 -128 71 -83 l 71 537 l 154 537 l 154 -81 q 154 -239 32 -240 z"},"i":{"x_min":0,"x_max":225,"ha":225,"o":"m 114 738 q 161 738 161 681 q 161 653 148 638 q 136 624 114 624 q 92 624 78 638 q 65 653 65 681 q 65 710 78 724 q 92 738 114 738 z m 154 537 l 154 0 l 71 0 l 71 537 z"},"y":{"x_min":0,"x_max":412,"ha":412,"o":"m 3 537 l 90 537 l 176 232 q 185 200 193 168 q 201 135 206 103 l 210 103 q 214 130 222 164 q 230 197 240 233 l 323 537 l 409 537 l 229 -79 q 205 -159 168 -200 q 132 -240 70 -240 q 54 -240 40 -238 q 26 -236 13 -232 l 13 -161 q 23 -163 35 -165 q 47 -167 58 -167 q 92 -167 112 -144 q 131 -120 147 -67 l 167 2 z"},"@":{"x_min":0,"x_max":725,"ha":725,"o":"m 676 360 q 676 249 640 180 q 604 112 537 112 q 496 112 474 136 q 451 161 446 202 l 441 202 q 428 158 403 135 q 378 112 340 112 q 282 112 250 160 q 217 208 217 294 q 217 402 261 463 q 305 524 385 524 q 415 524 446 518 q 476 513 499 504 l 490 297 q 490 281 490 268 q 489 256 489 248 q 489 206 502 190 q 516 173 538 173 q 572 173 590 222 q 609 270 609 362 q 609 452 580 518 q 552 585 502 622 q 452 658 385 658 q 316 658 266 626 q 215 595 182 542 q 150 490 134 424 q 119 359 119 291 q 119 200 144 128 q 170 57 222 16 q 274 -25 354 -25 q 398 -25 441 -14 q 484 -2 516 14 l 516 -50 q 481 -67 442 -76 q 402 -86 352 -86 q 208 -86 130 11 q 51 108 51 285 q 51 415 92 513 q 133 611 208 665 q 284 719 385 718 q 474 718 540 671 q 605 624 640 543 q 676 462 676 360 z m 288 292 q 288 173 351 173 q 383 173 399 212 q 415 252 419 332 l 426 460 q 408 466 381 466 q 334 466 311 419 q 288 372 288 292 z"},".":{"x_min":0,"x_max":239,"ha":239,"o":"m 63 55 q 63 88 78 104 q 93 120 119 120 q 144 120 160 105 q 176 90 176 55 q 176 21 160 6 q 144 -10 119 -10 q 94 -10 78 6 q 63 22 63 55 z"},"p":{"x_min":0,"x_max":508,"ha":508,"o":"m 286 547 q 370 547 416 478 q 463 408 463 269 q 463 135 417 62 q 371 -10 289 -10 q 243 -10 208 12 q 174 34 154 71 l 150 71 q 152 51 153 30 q 154 10 154 -6 l 154 -240 l 71 -240 l 71 537 l 139 537 l 149 464 l 154 464 q 176 504 208 526 q 241 547 286 547 z m 269 476 q 209 476 182 429 q 155 382 154 285 l 154 266 q 154 162 181 112 q 208 62 270 62 q 324 62 350 115 q 377 168 377 269 q 377 369 352 422 q 326 476 269 476 z"},"X":{"x_min":0,"x_max":456,"ha":456,"o":"m 450 0 l 357 0 l 230 297 l 96 0 l 6 0 l 183 373 l 23 714 l 114 714 l 232 443 l 350 714 l 440 714 l 280 369 z"},"*":{"x_min":0,"x_max":443,"ha":443,"o":"m 265 761 l 249 612 l 390 654 l 405 571 l 267 560 l 362 435 l 288 393 l 221 530 l 155 393 l 82 435 l 174 560 l 38 571 l 53 653 l 193 612 l 177 761 z"},"Y":{"x_min":0,"x_max":444,"ha":444,"o":"m 223 374 l 354 714 l 444 714 l 265 278 l 265 0 l 179 0 l 179 275 l 0 714 l 91 714 z"},"c":{"x_min":0,"x_max":387,"ha":387,"o":"m 245 -10 q 150 -10 98 58 q 47 126 47 265 q 47 402 99 474 q 151 547 248 547 q 282 547 311 540 q 340 532 362 520 l 337 452 q 317 461 294 467 q 272 473 252 473 q 132 473 132 266 q 132 62 251 62 q 279 62 305 70 q 331 77 355 89 l 355 18 q 332 4 303 -3 q 274 -10 245 -10 z"},"!":{"x_min":0,"x_max":245,"ha":245,"o":"m 152 201 l 93 201 l 72 714 l 173 714 z m 66 55 q 66 120 123 120 q 148 120 164 105 q 179 90 179 55 q 179 21 162 6 q 146 -10 123 -10 q 97 -10 82 6 q 66 22 66 55 z"},"/":{"x_min":0,"x_max":371,"ha":371,"o":"m 359 716 l 96 -2 l 16 -2 l 280 716 z"},"[":{"x_min":0,"x_max":317,"ha":317,"o":"m 288 -160 l 74 -160 l 74 718 l 288 718 l 288 649 l 154 649 l 154 -91 l 288 -91 z"},"6":{"x_min":0,"x_max":472,"ha":472,"o":"m 47 304 q 47 428 71 522 q 95 617 152 670 q 210 724 308 724 q 329 724 350 721 q 370 718 387 714 l 387 639 q 354 651 311 651 q 219 651 176 576 q 134 501 130 369 l 134 369 q 153 406 185 428 q 217 450 263 450 q 317 450 354 422 q 391 393 410 342 q 429 292 429 227 q 429 158 408 104 q 386 51 345 20 q 304 -10 244 -10 q 154 -10 100 70 q 47 150 47 304 z m 243 65 q 290 65 318 104 q 345 144 345 226 q 345 300 320 339 q 294 378 244 378 q 209 378 184 360 q 160 342 147 313 q 134 284 134 253 q 134 211 145 168 q 156 124 180 94 q 204 65 243 65 z"},"r":{"x_min":0,"x_max":337,"ha":337,"o":"m 275 547 q 287 547 300 546 q 313 544 326 540 l 314 457 q 304 461 292 462 q 281 464 269 464 q 236 464 210 440 q 184 417 169 376 q 154 335 154 282 l 154 0 l 71 0 l 71 537 l 137 537 l 147 443 l 152 443 q 172 489 202 518 q 233 547 275 547 z"},"2":{"x_min":0,"x_max":472,"ha":472,"o":"m 423 0 l 38 0 l 38 65 l 192 267 q 238 326 266 370 q 294 413 306 452 q 319 492 319 538 q 319 589 292 619 q 265 649 216 649 q 178 649 148 636 q 119 622 88 594 l 43 652 q 83 688 125 706 q 167 724 220 724 q 306 724 356 674 q 405 624 405 542 q 405 485 389 438 q 373 390 342 343 q 311 296 266 240 l 139 80 l 139 76 l 423 76 z"},"{":{"x_min":0,"x_max":367,"ha":367,"o":"m 328 -160 q 237 -158 190 -120 q 144 -81 144 0 l 144 149 q 144 198 120 222 q 96 246 37 246 l 37 311 q 91 311 118 332 q 144 353 144 407 l 144 557 q 144 714 328 716 l 328 648 q 278 646 252 625 q 226 604 226 553 l 226 405 q 226 350 203 320 q 180 290 128 281 l 128 276 q 181 266 204 235 q 226 204 226 152 l 226 3 q 226 -46 251 -68 q 276 -91 328 -92 z"},"9":{"x_min":0,"x_max":472,"ha":472,"o":"m 423 415 q 423 290 398 194 q 373 99 316 44 q 258 -10 160 -10 q 141 -10 118 -7 q 94 -4 79 0 l 79 76 q 96 70 116 66 q 136 63 158 63 q 209 63 243 86 q 277 109 298 148 q 318 188 328 238 q 338 289 340 344 l 335 344 q 317 308 284 286 q 252 264 206 264 q 152 264 115 292 q 78 321 60 372 q 41 422 41 486 q 41 555 62 608 q 84 662 126 693 q 168 724 230 724 q 318 724 370 645 q 423 566 423 415 z m 229 649 q 180 649 153 610 q 126 570 126 488 q 126 414 151 375 q 176 336 226 336 q 262 336 287 355 q 312 374 324 404 q 337 434 337 467 q 337 494 332 526 q 326 557 314 585 q 301 613 280 631 q 260 649 229 649 z"}," ":{"x_min":0,"x_max":208,"ha":208,"o":""},"I":{"x_min":0,"x_max":300,"ha":300,"o":"m 263 0 l 36 0 l 36 49 l 106 67 l 106 647 l 36 665 l 36 714 l 263 714 l 263 665 l 192 647 l 192 67 l 263 49 z"},"H":{"x_min":0,"x_max":595,"ha":595,"o":"m 516 0 l 430 0 l 430 334 l 166 334 l 166 0 l 80 0 l 80 714 l 166 714 l 166 411 l 430 411 l 430 714 l 516 714 z"},"4":{"x_min":0,"x_max":472,"ha":472,"o":"m 456 157 l 373 157 l 373 0 l 290 0 l 290 157 l 18 157 l 18 227 l 284 719 l 373 719 l 373 230 l 456 230 z m 290 230 l 290 488 q 290 520 291 555 q 292 590 294 615 l 290 615 q 282 593 272 572 q 263 550 254 531 l 96 230 z"},"~":{"x_min":0,"x_max":473,"ha":473,"o":"m 224 320 q 172 347 135 347 q 111 347 84 331 q 58 315 35 288 l 35 365 q 78 417 139 417 q 167 417 192 409 q 216 401 248 386 q 302 359 338 359 q 364 359 390 376 q 416 392 438 417 l 438 340 q 394 290 334 290 q 304 290 280 297 q 257 304 224 320 z"},"D":{"x_min":0,"x_max":580,"ha":580,"o":"m 528 365 q 528 184 454 92 q 380 0 241 0 l 80 0 l 80 714 l 251 714 q 383 714 456 625 q 528 536 528 365 z m 438 362 q 438 502 388 570 q 339 638 245 638 l 166 638 l 166 76 l 235 76 q 338 76 388 148 q 438 220 438 362 z"},"^":{"x_min":0,"x_max":481,"ha":481,"o":"m 22 312 l 213 715 l 262 715 l 460 312 l 381 312 l 238 614 l 100 312 z"},"0":{"x_min":0,"x_max":472,"ha":472,"o":"m 428 357 q 428 184 383 87 q 338 -10 235 -10 q 173 -10 130 26 q 87 61 65 142 q 43 222 43 357 q 43 539 90 632 q 136 724 235 724 q 332 724 380 631 q 428 538 428 357 z m 129 357 q 129 210 154 138 q 178 66 235 66 q 292 66 317 138 q 342 211 342 357 q 342 503 317 576 q 292 649 235 649 q 178 649 154 576 q 129 504 129 357 z"},"F":{"x_min":0,"x_max":422,"ha":422,"o":"m 166 0 l 80 0 l 80 714 l 399 714 l 399 638 l 166 638 l 166 381 l 385 381 l 385 304 l 166 304 z"},"`":{"x_min":0,"x_max":270,"ha":270,"o":"m 139 766 q 150 743 166 716 q 182 688 199 662 q 216 636 230 617 l 230 606 l 176 606 q 156 624 128 652 q 101 679 76 708 q 52 736 40 757 l 40 766 z"},"k":{"x_min":0,"x_max":440,"ha":440,"o":"m 154 760 l 154 377 q 154 353 152 326 q 151 300 149 276 l 153 276 q 161 291 174 310 q 186 329 196 343 l 331 537 l 423 537 l 267 323 l 434 0 l 341 0 l 211 260 l 154 198 l 154 0 l 71 0 l 71 760 z"},"u":{"x_min":0,"x_max":505,"ha":505,"o":"m 434 537 l 434 0 l 366 0 l 356 72 l 351 72 q 331 32 296 11 q 261 -10 219 -10 q 139 -10 104 42 q 68 93 68 186 l 68 537 l 151 537 l 151 199 q 151 129 171 96 q 191 63 233 63 q 299 63 324 110 q 350 158 350 253 l 350 537 z"},"]":{"x_min":0,"x_max":317,"ha":317,"o":"m 29 -91 l 163 -91 l 163 649 l 29 649 l 29 718 l 243 718 l 243 -160 l 29 -160 z"},"U":{"x_min":0,"x_max":585,"ha":585,"o":"m 510 714 l 510 232 q 510 114 456 52 q 402 -10 292 -10 q 186 -10 130 52 q 74 113 74 232 l 74 714 l 160 714 l 160 231 q 160 147 194 107 q 228 67 294 67 q 361 67 392 108 q 424 149 424 232 l 424 714 z"},"o":{"x_min":0,"x_max":493,"ha":493,"o":"m 447 269 q 447 142 396 66 q 345 -10 245 -10 q 150 -10 98 66 q 46 141 46 269 q 46 402 96 474 q 147 547 247 547 q 340 547 394 476 q 447 405 447 269 z m 131 269 q 131 168 159 115 q 187 62 247 62 q 306 62 334 115 q 363 168 363 269 q 363 370 334 422 q 306 475 247 475 q 186 475 158 422 q 131 370 131 269 z"},"N":{"x_min":0,"x_max":626,"ha":626,"o":"m 547 0 l 444 0 l 158 585 l 154 585 q 157 546 159 505 q 161 464 161 426 l 161 0 l 80 0 l 80 714 l 183 714 l 468 136 l 471 136 q 469 174 468 216 q 466 259 466 294 l 466 714 l 547 714 z"},"+":{"x_min":0,"x_max":473,"ha":473,"o":"m 271 387 l 435 387 l 435 318 l 271 318 l 271 117 l 201 117 l 201 318 l 36 318 l 36 387 l 201 387 l 201 590 l 271 590 z"},"G":{"x_min":0,"x_max":600,"ha":600,"o":"m 338 377 l 540 377 l 540 26 q 444 -10 334 -10 q 240 -10 178 37 q 115 84 84 167 q 53 250 53 358 q 53 466 87 548 q 121 631 188 678 q 254 724 353 724 q 402 724 447 712 q 492 701 531 679 l 500 606 q 466 626 428 637 q 391 648 353 648 q 252 648 198 572 q 143 496 143 357 q 143 274 164 208 q 184 142 228 104 q 273 67 345 67 q 410 67 456 82 l 456 300 l 338 300 z"},"q":{"x_min":0,"x_max":508,"ha":508,"o":"m 354 -240 l 354 -16 q 354 1 356 24 q 357 48 359 74 l 354 74 q 332 34 299 12 q 266 -10 219 -10 q 139 -10 92 60 q 46 130 46 266 q 46 406 94 476 q 141 547 222 547 q 268 547 300 526 q 332 506 354 465 l 359 465 l 369 537 l 438 537 l 438 -240 z m 240 62 q 298 62 326 108 q 354 154 355 246 l 355 269 q 355 374 328 424 q 300 474 238 474 q 183 474 157 420 q 131 366 131 265 q 131 62 240 62 z"},"d":{"x_min":0,"x_max":508,"ha":508,"o":"m 222 -10 q 138 -10 92 61 q 46 132 46 268 q 46 403 92 475 q 138 547 220 547 q 264 547 298 526 q 332 505 354 468 l 358 468 q 356 488 355 508 q 354 527 354 543 l 354 760 l 438 760 l 438 0 l 371 0 l 359 69 l 354 69 q 332 32 300 11 q 268 -10 222 -10 z m 239 60 q 299 60 327 106 q 355 153 355 246 l 355 272 q 355 374 328 424 q 301 474 238 474 q 183 474 157 420 q 131 366 131 267 q 131 166 158 113 q 184 60 239 60 z"},"1":{"x_min":0,"x_max":472,"ha":472,"o":"m 312 0 l 228 0 l 228 486 q 228 522 229 554 q 230 585 232 617 q 223 606 212 594 q 200 582 183 566 l 117 506 l 70 559 l 240 714 l 312 714 z"},"5":{"x_min":0,"x_max":472,"ha":472,"o":"m 230 439 q 320 439 372 382 q 424 324 424 229 q 424 121 366 56 q 308 -10 200 -10 q 108 -10 53 23 l 53 106 q 84 86 122 75 q 160 64 196 64 q 265 64 302 109 q 338 154 338 225 q 338 295 303 331 q 268 367 201 367 q 176 367 149 362 q 122 358 99 351 l 62 382 l 85 714 l 382 714 l 382 637 l 157 637 l 142 429 q 162 433 184 436 q 207 439 230 439 z"}}}
